<?xml version="1.0" encoding="utf-8"?>
<!-- Generator: Adobe Illustrator 27.8.1, SVG Export Plug-In . SVG Version: 6.00 Build 0)  -->
<svg version="1.1" id="Layer_1" xmlns="http://www.w3.org/2000/svg" xmlns:xlink="http://www.w3.org/1999/xlink" x="0px" y="0px"
	 viewBox="0 0 1366 1280" style="enable-background:new 0 0 1366 1280;" xml:space="preserve">
<style type="text/css">
	.st0{opacity:1;fill:rgba(30, 34, 37, 0.9);}
</style>
<path class="st0" d="M1114.17,765.11c-81.28-35.98-205.36-90.9-212-77.19c-6.03,12.44,95.11,60.05,172.93,182.93
	c41.12,64.92,89.84,173.14,63.07,203.04c-46.45,51.86-284.25-172.11-340.22-111.83c-34.31,36.95,41.43,141.13-7.82,209.68
	c-30.57,42.56-105.17,63.61-149.5,38.83c-88.27-49.35-29.06-267.07-88.92-291.22c-60.45-24.38-154.58,177.55-216.55,150.07
	c-32.24-14.3-41.18-84.21-50-153.27c-12.86-100.62,5.46-142.84-16.82-159.88c-39.48-30.21-117.94,86.36-181.18,56.96
	C37.25,790,13.41,683.54,43.62,648.51c42.42-49.2,185.21,49.73,204.56,14.8c11.9-21.48-40.27-62.23-67-165.57
	c-9.88-38.19-23.88-92.29-3-112.99c25.33-25.12,71.93,28.79,156,19.02c20.35-2.37,80.35-9.34,100-51.46
	c27.39-58.7-47.13-135.22-23.16-166.83c18.58-24.5,81.01-1.8,117.16,18.04c86.6,47.53,100.05,121.29,134.94,115.92
	c55.35-8.52,54.08-200.4,107.48-205.8c28.65-2.9,58.37,48.86,70.35,77.66c34.1,81.93-4.2,149.03,17.59,161.14
	c26.1,14.52,79.02-82.91,197.38-143.67c84.64-43.45,198.13-65.77,218.87-33.01c22.2,35.05-60.64,134.89-132.89,194.15
	c-72.21,59.22-143.2,94.76-140.71,100.96c3.31,8.23,126.43-62.87,147.98-31.3c12.1,17.73-10.41,64.07-35,92.86
	c-45.47,53.23-103.46,52.76-103,67.12c0.8,24.91,174.29-2.84,247,100.69c27.28,38.85,40.59,96.47,23,116.35
	C1263.88,836.11,1222.25,812.95,1114.17,765.11z"/>
</svg>
