<svg xmlns="http://www.w3.org/2000/svg" xmlns:xlink="http://www.w3.org/1999/xlink" width="405.33" height="251.246" viewBox="0 0 405.33 251.246">
  <defs>
    <linearGradient id="linear-gradient" y1="0.5" x2="1" y2="0.5" gradientUnits="objectBoundingBox">
      <stop offset="0" stop-color="#a87030"/>
      <stop offset="0.34" stop-color="#fab217"/>
      <stop offset="0.35" stop-color="#f9af19"/>
      <stop offset="0.55" stop-color="#f49834"/>
      <stop offset="0.67" stop-color="#f3903f"/>
      <stop offset="1" stop-color="#a84927"/>
    </linearGradient>
    <linearGradient id="linear-gradient-2" x1="0" y1="0.5" x2="1" y2="0.5" xlink:href="#linear-gradient"/>
    <linearGradient id="linear-gradient-4" y1="0.5" x2="1" y2="0.5" gradientUnits="objectBoundingBox">
      <stop offset="0" stop-color="#fff33b"/>
      <stop offset="0.04" stop-color="#fee62d"/>
      <stop offset="0.12" stop-color="#fdd51b"/>
      <stop offset="0.2" stop-color="#fdca0f"/>
      <stop offset="0.28" stop-color="#fdc70c"/>
      <stop offset="0.67" stop-color="#f3903f"/>
      <stop offset="0.89" stop-color="#ed683c"/>
      <stop offset="1" stop-color="#e93e3a"/>
    </linearGradient>
  </defs>
  <g id="logo_gold" transform="translate(-400.86 -470.34)">
    <path id="Path_1" data-name="Path 1" d="M400.86,472.64q13.32.33,26.63.67,26.625,74.235,53.26,148.47a274.879,274.879,0,0,0,22.93,46.57,108.174,108.174,0,0,0,19.23,23.62c10.25,9.41,17.08,11.91,19.97,12.82a64.158,64.158,0,0,0,15.53,2.7c6.8.19,9.84-1.01,10.36,0,1.07,2.07-9.58,11.25-22.93,13.5h0a96.108,96.108,0,0,1-22.23-2.45c-9.19-2.4-15.66-7.49-20.93-11.72-9.75-7.82-15.95-16.11-22.67-26.77-8.55-13.58-17.51-30.32-29.02-59.25-6.16-15.47-10.19-27.26-10.92-29.38-15.1-44.32-30.93-93.11-39.2-118.78Z" fill="url(#linear-gradient)"/>
    <path id="Path_2" data-name="Path 2" d="M458.92,472.64q14.055.33,28.11.67,24.045,67.995,48.08,135.99a223.6,223.6,0,0,0,12.2-26.66c4.75-12.49,6.22-19.82,14.05-26.66,3.16-2.75,8.47-7.6,15.16-7.09,7.5.58,12.46,7.29,16.27,12.49,3.6,4.91,5.23,9.34,8.51,18.22,2.73,7.4,2.76,9.01,5.32,16.24,2.7,7.6,5.05,12.4,7.63,18.18,7.85,17.59,9.9,24.03,13.31,31.72,7.94,17.85,22.72,51.26,53.63,60.74a64.724,64.724,0,0,0,24.78,2.36c-11.4,9.61-21.62,11.87-27.37,12.49-28.1,3.03-60.37-21.11-75.82-61.41-1.64,3.27-11.48,22.19-29.96,24.63-15.67,2.08-27.74-8.09-31.81-11.47-6.71-5.58-10.24-12.23-17.01-25.31-4.63-8.93-7.16-15.15-11.09-24.63-14.94-35.98-16.26-37.26-24.04-57.7-1.25-3.29-4.57-12.07-8.51-23.28-6.11-17.41-13.77-40.89-21.45-69.51Z" fill="url(#linear-gradient-2)"/>
    <path id="Path_3" data-name="Path 3" d="M551.01,641.03q11.46-26.655,22.93-53.32c.02.05,5.71,14.06,5.73,14.12.05.13,9.01,22.19,9.06,22.33-4.02,20.98-15.18,33.51-23.67,32.73C556.92,656.14,551.91,643.42,551.01,641.03Z" fill="none"/>
    <path id="Path_4" data-name="Path 4" d="M616.84,553.29c3.8-2.28,10.11-5.22,17.01-4.05,3.28.56,10.49,2.68,22.19,22.95a159.052,159.052,0,0,1,15.16,35.77l49.56-134.64q14.055.33,28.11.67-31.245,83.355-62.5,166.7c3.54,6.57,8.7,13.66,15.16,13.84,13.03.34,23.92-27.59,41.05-75.59,9.95-27.87,22.4-63.61,36.24-105.62h27.37q-18.3,54.84-36.61,109.67c-9.51,22.35-14.52,37.83-17.38,48.25a96.116,96.116,0,0,1-8.83,22.15c-2.72,4.91-6.07,10.88-11.94,16.63-4.72,4.62-14.81,14.61-27.3,15.21-14.04.67-24.81-10.78-32.55-19.23-16.07-17.57-19.51-33.16-28.48-56.69a424.3,424.3,0,0,0-26.26-56.02Z" fill="url(#linear-gradient-2)"/>
    <path id="Path_5" data-name="Path 5" d="M400.86,472.64l26.62.68,10.2,28.43,6.34,17.68,14.9,44.23,5.54,12.75,4.06,11.3,10.73,29.93,13.78,31.8,10.64,18.92,8,11.52,11.23,12.1,9.15,7.33,10.82,5.49,8.14,1.91,7.39.79h10.36l-8.43,8.15L545.83,721l-13.84-.91-13.25-3.14-16.07-10.12L492.33,697,480,680.06l-7.03-11.84L461.44,645.4l-10.46-24.59-8.09-21.34-10.67-31.25-9.86-29.62-10.69-32.59" fill="none"/>
    <path id="Path_6" data-name="Path 6" d="M579.38,501.26a13.354,13.354,0,0,0,2.47-1.28,13.113,13.113,0,0,0,2.91-2.61,9.963,9.963,0,0,1,1.51.06,5.391,5.391,0,0,1,.6.09,2.261,2.261,0,0,1,.51,3.06,5.857,5.857,0,0,1-1.23,1.19,6.033,6.033,0,0,1-2.34,1.02c-1.02.14-2.04.28-3.06.43a12.391,12.391,0,0,1-3.49-.34,12.223,12.223,0,0,1-3.49-1.45,9.184,9.184,0,0,1-4.26-5.28,8.306,8.306,0,0,1-.2-3.62,10.678,10.678,0,0,1,.8-4.64,10.424,10.424,0,0,1,1.62-2.64,16.575,16.575,0,0,1,3.23-2.98,17.235,17.235,0,0,1,2.89-1.62,18.059,18.059,0,0,1,4.43-1.02,17.633,17.633,0,0,1,3.57,0,12.046,12.046,0,0,1,7.66,2.47,9.644,9.644,0,0,1,3.57,7.23,4.625,4.625,0,0,1-2.3,2.3,4.692,4.692,0,0,1-3.83-.09,5.715,5.715,0,0,1-3.74-1.45,5.858,5.858,0,0,1-1.87-4.34,11.995,11.995,0,0,1,2.05-8,9.1,9.1,0,0,1,1.79-2.81,9.208,9.208,0,0,1,2.64-1.96,15.227,15.227,0,0,1,4.17-1.96,15.454,15.454,0,0,1,3.49-.6,32.643,32.643,0,0,1,5.62.09,32.125,32.125,0,0,1,4.43.77c1.2.64,2.46,1.38,3.74,2.21.65.42,1.28.85,1.87,1.28a13.819,13.819,0,0,1,4.85,8.34,8.746,8.746,0,0,1-1.45,6.04,6.2,6.2,0,0,1-2.13,2.04,6.272,6.272,0,0,1-3.15.85,4.805,4.805,0,0,1-3.91-.94,4.636,4.636,0,0,1-1.53-4.51,9.812,9.812,0,0,1,2.21-3.32,10.092,10.092,0,0,1,2.21-1.62,10.3,10.3,0,0,1,1.79-1.19,12.113,12.113,0,0,1,8.43-.77,14.453,14.453,0,0,1,6.32,2.48,8.39,8.39,0,0,1,5.08,5.85,8.632,8.632,0,0,1,.43,2.55,8.53,8.53,0,0,1-.43,2.81,21.165,21.165,0,0,1-3.06,4.26,20.843,20.843,0,0,1-5.28,4.09c-6.06,2.17-11.03,3.69-14.47,4.6l-10.38,2.72q-5.865,1.62-11.74,3.23c-2.16,1.3-4.31,2.61-6.47,3.91a2.579,2.579,0,0,0,.51,2.3,2.463,2.463,0,0,0,2.72.6,19.709,19.709,0,0,0,2.98,0,20.307,20.307,0,0,0,5.38-1.14c2.24-.77,4.56-1.53,6.96-2.26q5-1.53,9.7-2.72c.63-.24,1.43-.51,2.38-.77a13.955,13.955,0,0,1,4.77-.68,10.289,10.289,0,0,1,2.38.43,3.947,3.947,0,0,1,2.89,1.96,3.808,3.808,0,0,1-.17,3.83,12.42,12.42,0,0,1-4.85,4.59c-.97.33-2.52.88-4.43,1.62-3.3,1.27-3.76,1.61-5.87,2.3-2.35.77-2.74.66-5.02,1.45a39.075,39.075,0,0,0-4.17,1.7q-2.8,1.32-5.62,2.64a5.673,5.673,0,0,0,1.87,6.04,18.891,18.891,0,0,0,3.66,3.91,18.623,18.623,0,0,0,4.17,2.55,21.748,21.748,0,0,0,5.28-4.34c1.49-1.13,1.8-2.05,1.79-2.69-.02-1.32-1.38-1.84-1.36-3.44a3.047,3.047,0,0,1,.85-2.04,3.5,3.5,0,0,1,3.15-.68,3.387,3.387,0,0,1,1.36,1.36,3.933,3.933,0,0,1-.17,3.57l-2.04,2.13a27.965,27.965,0,0,1-5.7,5.7,28.722,28.722,0,0,1-3.66,2.3l-5.45-4.34-6.64-7.49a4.341,4.341,0,0,1-1.19-3.66,4.215,4.215,0,0,1,1.7-2.64,70.1,70.1,0,0,1,6.47-3.06c2.33-.96,4.09-1.54,7.15-2.55,4.64-1.53,5.93-1.77,9.36-3.06,1.84-.69,3.31-1.32,4.22-1.71,2.27-.82,3.28-2.5,2.93-3.39-.27-.69-1.41-1.05-2.64-1.03a27.819,27.819,0,0,0-12.17,2.43q-6.2,2.04-12.38,4.09c-1.45.26-2.89.51-4.34.77h-6.13a5.835,5.835,0,0,1-2.43-1.32,6.129,6.129,0,0,1-1.91-4.04,11.155,11.155,0,0,1,5.36-5.88q5.43-2.04,10.85-4.09c4.36-1.11,8.1-2.08,11.06-2.85,6.98-1.82,5.3-1.42,8.09-2.13,2.65-.67,3.85-.95,5.7-1.53a62.238,62.238,0,0,0,5.96-2.21,9.791,9.791,0,0,0,4.43-4.09,9.442,9.442,0,0,0,1.15-3.91,9.01,9.01,0,0,0-5.23-6,13.538,13.538,0,0,0-5.74-1.28,9.609,9.609,0,0,0-3.36-.04,9.724,9.724,0,0,0-3.91,1.57c-1.02,1.06-2.04,2.13-3.06,3.19a2.254,2.254,0,0,0,3.31,3.06,11.9,11.9,0,0,0,1.28-1.62,12.224,12.224,0,0,0,1.11-2.13,11.685,11.685,0,0,0-1.88-8.25,13.216,13.216,0,0,0-6.76-4.46l-7.91-.51c-1.32.47-2.64.94-3.96,1.4-1.87,1.28-3.74,2.55-5.62,3.83a12.282,12.282,0,0,0-1.79,3.57,12.148,12.148,0,0,0-.46,2.23c-.33,2.45.44,4.68,1.91,5.69a4.865,4.865,0,0,0,2.55.85,3.921,3.921,0,0,0,1.34-.24,3.78,3.78,0,0,0-.06-2.74,3.737,3.737,0,0,0-1.93-1.93,11.339,11.339,0,0,0-2.41-1.13,11.8,11.8,0,0,0-4.89-.55l-7.02.51a8.176,8.176,0,0,0-2.04,1.06,8.072,8.072,0,0,0-1.79,1.79,10.982,10.982,0,0,0-1.02,1.87,11.619,11.619,0,0,0-.77,2.55,8.953,8.953,0,0,0,3.32,8.55,8.276,8.276,0,0,0,1.87,1.06,8.363,8.363,0,0,0,2.98.6Z" fill="url(#linear-gradient-4)"/>
  </g>
</svg>
