<svg xmlns="http://www.w3.org/2000/svg" xmlns:xlink="http://www.w3.org/1999/xlink" version="1.1" width="256" height="256" viewBox="0 0 256 256" xml:space="preserve">

<defs>
</defs>
<g style="stroke: none; stroke-width: 0; stroke-dasharray: none; stroke-linecap: butt; stroke-linejoin: miter; stroke-miterlimit: 10; fill: none; fill-rule: nonzero; opacity: 1;" transform="translate(1.4065934065934016 1.4065934065934016) scale(2.81 2.81)" >
	<path d="M 77.188 81.003 H 12.812 c -2.35 0 -4.262 -1.912 -4.262 -4.262 c 0 -3.297 1.438 -6.416 3.945 -8.558 c 2.061 -1.761 3.243 -4.325 3.243 -7.036 V 37.465 c 0 -16.136 13.127 -29.263 29.263 -29.263 s 29.263 13.127 29.263 29.263 v 23.683 c 0 2.71 1.182 5.275 3.242 7.037 c 2.506 2.141 3.944 5.26 3.944 8.557 C 81.45 79.091 79.538 81.003 77.188 81.003 z M 45.001 10.202 c -15.033 0 -27.263 12.23 -27.263 27.263 v 23.683 c 0 3.297 -1.438 6.416 -3.944 8.558 c -2.062 1.76 -3.244 4.325 -3.244 7.036 c 0 1.247 1.015 2.262 2.262 2.262 h 64.375 c 1.248 0 2.263 -1.015 2.263 -2.262 c 0 -2.711 -1.183 -5.275 -3.244 -7.036 c -2.506 -2.144 -3.942 -5.262 -3.942 -8.558 V 37.465 C 72.264 22.432 60.033 10.202 45.001 10.202 z" style="stroke: none; stroke-width: 1; stroke-dasharray: none; stroke-linecap: butt; stroke-linejoin: miter; stroke-miterlimit: 10; fill: rgb(0,0,0); fill-rule: nonzero; opacity: 1;" transform=" matrix(1 0 0 1 0 0) " stroke-linecap="round" />
	<path d="M 45 90 c -5.582 0 -10.147 -4.372 -10.392 -9.953 c -0.012 -0.272 0.088 -0.538 0.276 -0.735 c 0.189 -0.197 0.45 -0.309 0.723 -0.309 h 18.787 c 0.272 0 0.534 0.111 0.723 0.309 s 0.288 0.463 0.276 0.735 C 55.147 85.628 50.583 90 45 90 z M 36.716 81.003 C 37.389 85.001 40.846 88 45 88 s 7.611 -2.999 8.284 -6.997 H 36.716 z" style="stroke: none; stroke-width: 1; stroke-dasharray: none; stroke-linecap: butt; stroke-linejoin: miter; stroke-miterlimit: 10; fill: rgb(0,0,0); fill-rule: nonzero; opacity: 1;" transform=" matrix(1 0 0 1 0 0) " stroke-linecap="round" />
	<path d="M 38.572 10.946 c -0.224 0 -0.443 -0.075 -0.622 -0.217 c -0.239 -0.19 -0.378 -0.478 -0.378 -0.783 V 7.428 C 37.572 3.332 40.904 0 45 0 s 7.428 3.332 7.428 7.428 v 2.517 c 0 0.305 -0.14 0.593 -0.378 0.783 c -0.239 0.189 -0.551 0.259 -0.849 0.191 c -4.086 -0.951 -8.31 -0.952 -12.402 0.001 C 38.724 10.937 38.648 10.946 38.572 10.946 z M 45 2 c -2.993 0 -5.428 2.435 -5.428 5.428 v 1.286 c 3.598 -0.679 7.261 -0.679 10.855 -0.001 V 7.428 C 50.428 4.435 47.993 2 45 2 z" style="stroke: none; stroke-width: 1; stroke-dasharray: none; stroke-linecap: butt; stroke-linejoin: miter; stroke-miterlimit: 10; fill: rgb(0,0,0); fill-rule: nonzero; opacity: 1;" transform=" matrix(1 0 0 1 0 0) " stroke-linecap="round" />
	<path d="M 45 55.358 c -2.724 0 -4.992 -2.216 -5.055 -4.939 L 39.374 25.82 c -0.032 -1.373 0.479 -2.669 1.438 -3.651 c 0.96 -0.982 2.245 -1.523 3.618 -1.523 h 1.143 c 1.373 0 2.657 0.541 3.617 1.522 c 0.959 0.982 1.47 2.279 1.438 3.651 l -0.571 24.599 C 49.992 53.143 47.725 55.358 45 55.358 z M 44.429 22.646 c -0.83 0 -1.607 0.327 -2.187 0.921 c -0.58 0.593 -0.888 1.377 -0.869 2.207 l 0.571 24.599 c 0.039 1.646 1.409 2.986 3.056 2.986 c 1.647 0 3.018 -1.34 3.056 -2.986 l 0.571 -24.599 c 0.02 -0.83 -0.289 -1.613 -0.869 -2.207 s -1.356 -0.92 -2.187 -0.92 H 44.429 z" style="stroke: none; stroke-width: 1; stroke-dasharray: none; stroke-linecap: butt; stroke-linejoin: miter; stroke-miterlimit: 10; fill: rgb(0,0,0); fill-rule: nonzero; opacity: 1;" transform=" matrix(1 0 0 1 0 0) " stroke-linecap="round" />
	<path d="M 45 69.843 c -2.737 0 -4.964 -2.227 -4.964 -4.964 v -1.52 c 0 -2.737 2.227 -4.964 4.964 -4.964 s 4.964 2.227 4.964 4.964 v 1.52 C 49.964 67.616 47.737 69.843 45 69.843 z M 45 60.396 c -1.634 0 -2.964 1.329 -2.964 2.964 v 1.52 c 0 1.635 1.33 2.964 2.964 2.964 c 1.635 0 2.964 -1.329 2.964 -2.964 v -1.52 C 47.964 61.725 46.635 60.396 45 60.396 z" style="stroke: none; stroke-width: 1; stroke-dasharray: none; stroke-linecap: butt; stroke-linejoin: miter; stroke-miterlimit: 10; fill: rgb(0,0,0); fill-rule: nonzero; opacity: 1;" transform=" matrix(1 0 0 1 0 0) " stroke-linecap="round" />
	<path d="M 80.479 41.087 c -0.097 0 -0.194 -0.014 -0.292 -0.044 c -0.528 -0.161 -0.825 -0.72 -0.664 -1.249 c 0.637 -2.089 0.96 -4.258 0.96 -6.447 c 0 -5.336 -1.938 -10.488 -5.455 -14.507 c -0.364 -0.416 -0.322 -1.047 0.094 -1.411 c 0.414 -0.363 1.046 -0.322 1.41 0.094 c 3.838 4.383 5.951 10.003 5.951 15.824 c 0 2.387 -0.353 4.752 -1.048 7.031 C 81.305 40.809 80.908 41.087 80.479 41.087 z" style="stroke: none; stroke-width: 1; stroke-dasharray: none; stroke-linecap: butt; stroke-linejoin: miter; stroke-miterlimit: 10; fill: rgb(0,0,0); fill-rule: nonzero; opacity: 1;" transform=" matrix(1 0 0 1 0 0) " stroke-linecap="round" />
	<path d="M 87.681 42.992 c -0.097 0 -0.194 -0.014 -0.292 -0.044 c -0.528 -0.161 -0.825 -0.72 -0.664 -1.249 c 0.821 -2.693 1.238 -5.49 1.238 -8.314 c 0 -6.881 -2.499 -13.525 -7.036 -18.709 c -0.363 -0.416 -0.321 -1.047 0.095 -1.411 c 0.414 -0.364 1.045 -0.322 1.411 0.094 c 4.855 5.548 7.53 12.661 7.53 20.026 c 0 3.022 -0.446 6.016 -1.326 8.898 C 88.506 42.714 88.109 42.992 87.681 42.992 z" style="stroke: none; stroke-width: 1; stroke-dasharray: none; stroke-linecap: butt; stroke-linejoin: miter; stroke-miterlimit: 10; fill: rgb(0,0,0); fill-rule: nonzero; opacity: 1;" transform=" matrix(1 0 0 1 0 0) " stroke-linecap="round" />
	<path d="M 9.445 41.087 c -0.428 0 -0.824 -0.277 -0.956 -0.708 c -0.695 -2.275 -1.047 -4.64 -1.047 -7.031 c 0 -5.821 2.113 -11.441 5.95 -15.824 c 0.364 -0.416 0.995 -0.458 1.411 -0.094 c 0.416 0.364 0.458 0.996 0.094 1.411 c -3.518 4.019 -5.455 9.17 -5.455 14.507 c 0 2.192 0.323 4.361 0.96 6.447 c 0.161 0.528 -0.136 1.087 -0.665 1.249 C 9.641 41.073 9.542 41.087 9.445 41.087 z" style="stroke: none; stroke-width: 1; stroke-dasharray: none; stroke-linecap: butt; stroke-linejoin: miter; stroke-miterlimit: 10; fill: rgb(0,0,0); fill-rule: nonzero; opacity: 1;" transform=" matrix(1 0 0 1 0 0) " stroke-linecap="round" />
	<path d="M 2.244 42.992 c -0.428 0 -0.824 -0.277 -0.956 -0.708 c -0.879 -2.88 -1.326 -5.875 -1.326 -8.898 c 0 -7.367 2.674 -14.479 7.531 -20.026 c 0.364 -0.416 0.994 -0.458 1.411 -0.094 c 0.416 0.364 0.458 0.996 0.094 1.411 c -4.537 5.182 -7.036 11.827 -7.036 18.709 c 0 2.826 0.417 5.624 1.239 8.314 c 0.161 0.528 -0.136 1.087 -0.665 1.249 C 2.439 42.978 2.341 42.992 2.244 42.992 z" style="stroke: none; stroke-width: 1; stroke-dasharray: none; stroke-linecap: butt; stroke-linejoin: miter; stroke-miterlimit: 10; fill: rgb(0,0,0); fill-rule: nonzero; opacity: 1;" transform=" matrix(1 0 0 1 0 0) " stroke-linecap="round" />
</g>
</svg>