<?xml version="1.0" encoding="utf-8"?>
<!-- Generator: Adobe Illustrator 27.8.1, SVG Export Plug-In . SVG Version: 6.00 Build 0)  -->
<svg version="1.1" id="Layer_1" xmlns="http://www.w3.org/2000/svg" xmlns:xlink="http://www.w3.org/1999/xlink" x="0px" y="0px"
	 viewBox="0 0 1366 1280" style="enable-background:new 0 0 1366 1280;" xml:space="preserve">
<style type="text/css">
	.st0{fill:#CCCCCC;stroke:#333333;stroke-width:2;stroke-miterlimit:10;}
	.st1{fill:none;stroke:#333333;stroke-miterlimit:10;}
	.st2{opacity:0.87;fill:#333333;}
	.st3{fill:#F2F2F2;}
	.st4{fill:none;stroke:#4D4D4D;stroke-width:5;stroke-miterlimit:10;}
	.st5{fill:none;stroke:#22B573;stroke-width:6;stroke-miterlimit:10;}
	.st6{fill:none;stroke:#808080;stroke-width:4;stroke-miterlimit:10;}
</style>
<path class="st0" d="M775.71,984.39l-233.98-1.54c-23.83-0.16-43.27-19.98-43.43-44.28l-3.54-546.45
	c-0.16-24.3,19.03-43.87,42.86-43.71l233.98,1.54c23.83,0.16,43.27,19.98,43.43,44.28l3.54,546.45
	C818.73,964.98,799.54,984.55,775.71,984.39z"/>
<line class="st1" x1="594.59" y1="367.73" x2="712.73" y2="367.73"/>
<path class="st2" d="M679.77,936.55L679.77,936.55c-1.82,14.94-14.59,25.15-28.52,22.81h0c-13.94-2.34-23.76-16.35-21.94-31.28v0
	c1.82-14.94,14.59-25.15,28.52-22.81v0C671.76,907.6,681.58,921.61,679.77,936.55z"/>
<polygon class="st3" points="800.85,887.43 517.33,885.56 514.07,381.65 797.59,383.52 "/>
<ellipse transform="matrix(0.5119 -0.859 0.859 0.5119 -157.0221 836.7517)" class="st4" cx="657.86" cy="556.56" rx="55.69" ry="56.96"/>
<line class="st5" x1="619.25" y1="540.79" x2="661.43" y2="578.72"/>
<line class="st5" x1="744.54" y1="489.12" x2="659.77" y2="580.98"/>
<line class="st6" x1="607.47" y1="746.03" x2="711.08" y2="746.03"/>
<line class="st6" x1="561.4" y1="796.67" x2="747.38" y2="796.67"/>
</svg>
