<?xml version="1.0" encoding="utf-8"?>
<!-- Generator: Adobe Illustrator 27.8.1, SVG Export Plug-In . SVG Version: 6.00 Build 0)  -->
<svg version="1.1" id="Layer_1" xmlns="http://www.w3.org/2000/svg" xmlns:xlink="http://www.w3.org/1999/xlink" x="0px" y="0px"
	 viewBox="0 0 1366 1280" style="enable-background:new 0 0 1366 1280;" xml:space="preserve">
<style type="text/css">
	.st0{fill:#E6E6E6;stroke:#000000;stroke-width:0.5;stroke-miterlimit:10;}
	.st1{fill:#4D4D4D;stroke:#808080;stroke-width:2;stroke-miterlimit:10;}
	.st2{fill:none;stroke:#808080;stroke-width:2;stroke-miterlimit:10;}
	.st3{fill:#333333;}
</style>
<g>
	<path class="st0" d="M831.62,727.14H163.49c-6.35,0-11.49-5.15-11.49-11.49v-450.2c0-6.35,5.15-11.49,11.49-11.49h668.13
		c6.35,0,11.49,5.15,11.49,11.49v450.2C843.11,721.99,837.97,727.14,831.62,727.14z"/>
	<rect x="390.71" y="346.26" class="st1" width="369.23" height="41.89"/>
	<ellipse class="st2" cx="283.19" cy="366.43" rx="38.55" ry="41.89"/>
	<line class="st2" x1="283.19" y1="324.54" x2="283.19" y2="408.32"/>
	<path class="st2" d="M260.06,332.92c2.08,7.61,4.3,18.45,4.63,31.65c0.37,14.94-1.82,27.18-3.85,35.37"/>
	<path class="st2" d="M307.09,333.85c-2.07,6.7-4.6,17.37-4.63,30.72c-0.03,14.88,3.07,26.59,5.4,33.51"/>
	<path class="st2" d="M309.14,625.52h-51.9c-4.72,0-8.54-3.82-8.54-8.54v-49.61c0-4.72,3.82-8.54,8.54-8.54h51.9
		c4.72,0,8.54,3.82,8.54,8.54v49.61C317.68,621.7,313.85,625.52,309.14,625.52z"/>
	<line class="st2" x1="264.47" y1="558.83" x2="264.47" y2="625.52"/>
	<line class="st2" x1="317.68" y1="581.44" x2="264.47" y2="581.44"/>
	<line class="st2" x1="317.68" y1="602.91" x2="264.47" y2="604.04"/>
	<path class="st0" d="M1114.98,598.28L481.25,878.04c-5.81,2.56-12.59-0.07-15.15-5.87L293.33,480.81
		c-2.56-5.81,0.07-12.59,5.87-15.15L932.93,185.9c5.81-2.56,12.59,0.07,15.15,5.87l172.76,391.36
		C1123.41,588.93,1120.78,595.72,1114.98,598.28z"/>
	<path class="st3" d="M1019.26,355.94C804.55,460.56,589.84,565.19,375.13,669.81l-38.69-94.08
		c215.89-100.6,431.79-201.19,647.68-301.79C995.83,301.27,1007.55,328.61,1019.26,355.94z"/>
	<line class="st2" x1="489.44" y1="709.3" x2="684.2" y2="611.56"/>
	<line class="st2" x1="500.49" y1="737.97" x2="724.77" y2="625.52"/>
	<line class="st2" x1="512.66" y1="769" x2="759.94" y2="644.14"/>
	<path class="st1" d="M952.25,545.39l-22.09,11.73c-21.01,11.16-45.93,0.67-55.66-23.44l0,0c-9.73-24.1-0.58-52.69,20.43-63.85
		l22.09-11.73c21.01-11.16,45.93-0.67,55.66,23.44v0C982.41,505.64,973.26,534.23,952.25,545.39z"/>
</g>
</svg>
