<svg xmlns="http://www.w3.org/2000/svg" xmlns:xlink="http://www.w3.org/1999/xlink" version="1.1" width="256" height="256" viewBox="0 0 256 256" xml:space="preserve">

<defs>
</defs>
<g style="stroke: none; stroke-width: 0; stroke-dasharray: none; stroke-linecap: butt; stroke-linejoin: miter; stroke-miterlimit: 10; fill: none; fill-rule: nonzero; opacity: 1;" transform="translate(1.4065934065934016 1.4065934065934016) scale(2.81 2.81)" >
	<path d="M 38.249 81 H 35.21 c -0.552 0 -1 0.447 -1 1 s 0.448 1 1 1 h 3.039 c 0.552 0 1 -0.447 1 -1 S 38.801 81 38.249 81 z" style="stroke: none; stroke-width: 1; stroke-dasharray: none; stroke-linecap: butt; stroke-linejoin: miter; stroke-miterlimit: 10; fill: rgb(0,0,0); fill-rule: nonzero; opacity: 1;" transform=" matrix(1 0 0 1 0 0) " stroke-linecap="round" />
	<path d="M 29.97 9 h 1.52 c 0.552 0 1 -0.448 1 -1 s -0.448 -1 -1 -1 h -1.52 c -0.552 0 -1 0.448 -1 1 S 29.417 9 29.97 9 z" style="stroke: none; stroke-width: 1; stroke-dasharray: none; stroke-linecap: butt; stroke-linejoin: miter; stroke-miterlimit: 10; fill: rgb(0,0,0); fill-rule: nonzero; opacity: 1;" transform=" matrix(1 0 0 1 0 0) " stroke-linecap="round" />
	<path d="M 35.97 9 h 7.52 c 0.552 0 1 -0.448 1 -1 s -0.448 -1 -1 -1 h -7.52 c -0.552 0 -1 0.448 -1 1 S 35.417 9 35.97 9 z" style="stroke: none; stroke-width: 1; stroke-dasharray: none; stroke-linecap: butt; stroke-linejoin: miter; stroke-miterlimit: 10; fill: rgb(0,0,0); fill-rule: nonzero; opacity: 1;" transform=" matrix(1 0 0 1 0 0) " stroke-linecap="round" />
	<path d="M 71.098 60.97 c -0.501 -3.487 -2.841 -6.458 -6.15 -7.77 l -3.987 -1.375 v -6.157 V 5.719 C 60.96 2.565 58.395 0 55.241 0 H 18.218 c -3.153 0 -5.719 2.565 -5.719 5.719 v 78.563 c 0 3.153 2.565 5.719 5.719 5.719 H 47.05 c 0.057 0 0.107 -0.023 0.161 -0.033 C 47.269 89.978 47.323 90 47.384 90 h 20.467 c 0.553 0 1 -0.447 1 -1 c 0 -5.655 0.766 -10.077 1.441 -13.978 C 71.12 70.239 71.835 66.108 71.098 60.97 z M 14.499 84.281 V 5.719 c 0 -2.05 1.668 -3.719 3.719 -3.719 h 37.023 c 2.051 0 3.719 1.668 3.719 3.719 v 39.95 v 9.196 v 7.279 l -8.578 -6.043 c -0.553 -0.385 -1.195 -0.643 -1.926 -0.753 l -5.351 -0.466 c -2.886 -0.445 -5.647 1.431 -6.301 4.271 l -0.171 0.743 c -0.649 2.818 0.929 5.638 3.672 6.558 c 0.042 0.014 0.083 0.025 0.126 0.033 l 5.537 1.079 c 0.285 0.104 0.542 0.255 0.736 0.424 l 4.809 4.627 c -3.633 3.885 -5.534 9.5 -5.209 15.384 H 18.218 C 16.167 88 14.499 86.332 14.499 84.281 z M 68.321 74.681 c -0.649 3.75 -1.381 7.972 -1.463 13.319 H 48.306 c -0.348 -5.729 1.608 -11.162 5.32 -14.674 c 0.198 -0.188 0.312 -0.449 0.313 -0.723 s -0.109 -0.535 -0.307 -0.725 l -5.575 -5.362 c -0.441 -0.387 -0.949 -0.679 -1.509 -0.867 c -0.041 -0.014 -0.084 -0.024 -0.127 -0.033 l -5.539 -1.079 c -1.726 -0.611 -2.713 -2.402 -2.3 -4.192 l 0.171 -0.743 c 0.42 -1.824 2.196 -3.028 4.112 -2.735 l 5.351 0.466 c 0.365 0.057 0.719 0.198 1.018 0.406 l 10.149 7.15 c 0.029 0.02 0.063 0.024 0.093 0.041 c 0.06 0.034 0.12 0.061 0.187 0.082 c 0.065 0.02 0.128 0.033 0.195 0.039 c 0.035 0.004 0.065 0.02 0.101 0.02 c 0.029 0 0.054 -0.014 0.082 -0.017 c 0.069 -0.006 0.134 -0.021 0.201 -0.04 c 0.06 -0.018 0.117 -0.037 0.172 -0.065 c 0.056 -0.029 0.105 -0.065 0.156 -0.105 c 0.054 -0.043 0.103 -0.087 0.147 -0.14 c 0.018 -0.022 0.044 -0.034 0.06 -0.057 c 0.02 -0.029 0.024 -0.063 0.041 -0.093 c 0.034 -0.06 0.061 -0.119 0.082 -0.186 c 0.021 -0.066 0.033 -0.13 0.04 -0.197 c 0.004 -0.035 0.02 -0.065 0.02 -0.1 v -9.207 V 53.94 l 3.293 1.135 c 2.602 1.031 4.466 3.399 4.864 6.178 C 69.811 66.079 69.12 70.065 68.321 74.681 z" style="stroke: none; stroke-width: 1; stroke-dasharray: none; stroke-linecap: butt; stroke-linejoin: miter; stroke-miterlimit: 10; fill: rgb(0,0,0); fill-rule: nonzero; opacity: 1;" transform=" matrix(1 0 0 1 0 0) " stroke-linecap="round" />
	<path d="M 41.498 18.035 v 9.991 c 0 0.552 0.448 1 1 1 h 9.991 c 0.553 0 1 -0.448 1 -1 v -9.991 c 0 -0.552 -0.447 -1 -1 -1 h -9.991 C 41.946 17.035 41.498 17.482 41.498 18.035 z M 43.498 19.035 h 7.991 v 7.991 h -7.991 V 19.035 z" style="stroke: none; stroke-width: 1; stroke-dasharray: none; stroke-linecap: butt; stroke-linejoin: miter; stroke-miterlimit: 10; fill: rgb(0,0,0); fill-rule: nonzero; opacity: 1;" transform=" matrix(1 0 0 1 0 0) " stroke-linecap="round" />
	<path d="M 47.5 22.03 h -0.013 c -0.553 0 -0.994 0.448 -0.994 1 s 0.454 1 1.007 1 s 1 -0.448 1 -1 S 48.053 22.03 47.5 22.03 z" style="stroke: none; stroke-width: 1; stroke-dasharray: none; stroke-linecap: butt; stroke-linejoin: miter; stroke-miterlimit: 10; fill: rgb(0,0,0); fill-rule: nonzero; opacity: 1;" transform=" matrix(1 0 0 1 0 0) " stroke-linecap="round" />
	<path d="M 52.489 37.043 c -0.553 0 -1 0.448 -1 1 v 8.991 h -8.991 c -0.552 0 -1 0.447 -1 1 s 0.448 1 1 1 h 9.991 c 0.553 0 1 -0.447 1 -1 v -9.991 C 53.489 37.491 53.042 37.043 52.489 37.043 z" style="stroke: none; stroke-width: 1; stroke-dasharray: none; stroke-linecap: butt; stroke-linejoin: miter; stroke-miterlimit: 10; fill: rgb(0,0,0); fill-rule: nonzero; opacity: 1;" transform=" matrix(1 0 0 1 0 0) " stroke-linecap="round" />
	<path d="M 47.487 42.039 c -0.553 0 -0.994 0.448 -0.994 1 s 0.454 1 1.007 1 s 1 -0.448 1 -1 s -0.447 -1 -1 -1 H 47.487 z" style="stroke: none; stroke-width: 1; stroke-dasharray: none; stroke-linecap: butt; stroke-linejoin: miter; stroke-miterlimit: 10; fill: rgb(0,0,0); fill-rule: nonzero; opacity: 1;" transform=" matrix(1 0 0 1 0 0) " stroke-linecap="round" />
	<path d="M 32.48 17.035 h -9.991 c -0.552 0 -1 0.448 -1 1 v 9.991 c 0 0.552 0.448 1 1 1 h 9.991 c 0.552 0 1 -0.448 1 -1 v -9.991 C 33.48 17.482 33.033 17.035 32.48 17.035 z M 31.48 27.026 h -7.991 v -7.991 h 7.991 V 27.026 z" style="stroke: none; stroke-width: 1; stroke-dasharray: none; stroke-linecap: butt; stroke-linejoin: miter; stroke-miterlimit: 10; fill: rgb(0,0,0); fill-rule: nonzero; opacity: 1;" transform=" matrix(1 0 0 1 0 0) " stroke-linecap="round" />
	<path d="M 27.491 24.03 c 0.552 0 1 -0.448 1 -1 s -0.448 -1 -1 -1 h -0.012 c -0.552 0 -0.994 0.448 -0.994 1 S 26.939 24.03 27.491 24.03 z" style="stroke: none; stroke-width: 1; stroke-dasharray: none; stroke-linecap: butt; stroke-linejoin: miter; stroke-miterlimit: 10; fill: rgb(0,0,0); fill-rule: nonzero; opacity: 1;" transform=" matrix(1 0 0 1 0 0) " stroke-linecap="round" />
	<path d="M 32.48 37.043 h -9.991 c -0.552 0 -1 0.448 -1 1 v 9.991 c 0 0.553 0.448 1 1 1 h 9.991 c 0.552 0 1 -0.447 1 -1 v -9.991 C 33.48 37.491 33.033 37.043 32.48 37.043 z M 31.48 47.034 h -7.991 v -7.991 h 7.991 V 47.034 z" style="stroke: none; stroke-width: 1; stroke-dasharray: none; stroke-linecap: butt; stroke-linejoin: miter; stroke-miterlimit: 10; fill: rgb(0,0,0); fill-rule: nonzero; opacity: 1;" transform=" matrix(1 0 0 1 0 0) " stroke-linecap="round" />
	<path d="M 27.491 44.039 c 0.552 0 1 -0.448 1 -1 s -0.448 -1 -1 -1 h -0.012 c -0.552 0 -0.994 0.448 -0.994 1 S 26.939 44.039 27.491 44.039 z" style="stroke: none; stroke-width: 1; stroke-dasharray: none; stroke-linecap: butt; stroke-linejoin: miter; stroke-miterlimit: 10; fill: rgb(0,0,0); fill-rule: nonzero; opacity: 1;" transform=" matrix(1 0 0 1 0 0) " stroke-linecap="round" />
	<path d="M 52.489 32.035 h -14 v -3.502 c 0 -0.552 -0.448 -1 -1 -1 s -1 0.448 -1 1 v 4.502 c 0 0.552 0.448 1 1 1 h 15 c 0.553 0 1 -0.448 1 -1 S 53.042 32.035 52.489 32.035 z" style="stroke: none; stroke-width: 1; stroke-dasharray: none; stroke-linecap: butt; stroke-linejoin: miter; stroke-miterlimit: 10; fill: rgb(0,0,0); fill-rule: nonzero; opacity: 1;" transform=" matrix(1 0 0 1 0 0) " stroke-linecap="round" />
	<path d="M 32.48 32.035 h -9.991 c -0.552 0 -1 0.448 -1 1 s 0.448 1 1 1 h 9.991 c 0.552 0 1 -0.448 1 -1 S 33.033 32.035 32.48 32.035 z" style="stroke: none; stroke-width: 1; stroke-dasharray: none; stroke-linecap: butt; stroke-linejoin: miter; stroke-miterlimit: 10; fill: rgb(0,0,0); fill-rule: nonzero; opacity: 1;" transform=" matrix(1 0 0 1 0 0) " stroke-linecap="round" />
	<path d="M 47.062 37.043 h -2.994 c -0.552 0 -1 0.448 -1 1 s 0.448 1 1 1 h 2.994 c 0.553 0 1 -0.448 1 -1 S 47.614 37.043 47.062 37.043 z" style="stroke: none; stroke-width: 1; stroke-dasharray: none; stroke-linecap: butt; stroke-linejoin: miter; stroke-miterlimit: 10; fill: rgb(0,0,0); fill-rule: nonzero; opacity: 1;" transform=" matrix(1 0 0 1 0 0) " stroke-linecap="round" />
	<path d="M 37.489 37.043 c -0.552 0 -1 0.448 -1 1 v 9.991 c 0 0.553 0.448 1 1 1 s 1 -0.447 1 -1 v -9.991 C 38.489 37.491 38.042 37.043 37.489 37.043 z" style="stroke: none; stroke-width: 1; stroke-dasharray: none; stroke-linecap: butt; stroke-linejoin: miter; stroke-miterlimit: 10; fill: rgb(0,0,0); fill-rule: nonzero; opacity: 1;" transform=" matrix(1 0 0 1 0 0) " stroke-linecap="round" />
	<path d="M 37.489 22.324 c 0.552 0 1 -0.448 1 -1 v -3.289 c 0 -0.552 -0.448 -1 -1 -1 s -1 0.448 -1 1 v 3.289 C 36.489 21.876 36.937 22.324 37.489 22.324 z" style="stroke: none; stroke-width: 1; stroke-dasharray: none; stroke-linecap: butt; stroke-linejoin: miter; stroke-miterlimit: 10; fill: rgb(0,0,0); fill-rule: nonzero; opacity: 1;" transform=" matrix(1 0 0 1 0 0) " stroke-linecap="round" />
</g>
</svg>