<svg xmlns="http://www.w3.org/2000/svg" xmlns:xlink="http://www.w3.org/1999/xlink" version="1.1" width="256" height="256" viewBox="0 0 256 256" xml:space="preserve">

<defs>
</defs>
<g style="stroke: none; stroke-width: 0; stroke-dasharray: none; stroke-linecap: butt; stroke-linejoin: miter; stroke-miterlimit: 10; fill: none; fill-rule: nonzero; opacity: 1;" transform="translate(1.4065934065934016 1.4065934065934016) scale(2.81 2.81)" >
	<path d="M 30.698 69.65 c -0.871 0 -1.699 -0.516 -2.053 -1.368 c -0.815 -1.969 -2.598 -2.67 -3.995 -2.67 c -1.396 0 -3.179 0.701 -3.994 2.669 c -0.469 1.131 -1.77 1.666 -2.899 1.2 l -5.543 -2.296 c -0.548 -0.227 -0.974 -0.653 -1.201 -1.201 c -0.227 -0.548 -0.227 -1.15 0 -1.698 c 0.815 -1.968 0.05 -3.725 -0.937 -4.712 c -0.987 -0.986 -2.744 -1.75 -4.711 -0.937 c -0.548 0.227 -1.151 0.226 -1.698 0.001 c -0.547 -0.227 -0.974 -0.653 -1.201 -1.201 L 0.17 51.893 c -0.468 -1.13 0.07 -2.431 1.2 -2.899 C 3.338 48.18 4.039 46.396 4.039 45 c 0 -1.396 -0.701 -3.179 -2.669 -3.995 c -0.547 -0.227 -0.974 -0.653 -1.201 -1.201 c -0.227 -0.548 -0.227 -1.151 0 -1.699 l 2.296 -5.543 c 0.469 -1.129 1.77 -1.669 2.899 -1.201 c 1.969 0.815 3.725 0.051 4.712 -0.937 c 0.987 -0.988 1.752 -2.744 0.937 -4.712 c -0.227 -0.547 -0.227 -1.15 0 -1.698 c 0.227 -0.548 0.653 -0.974 1.201 -1.201 l 5.543 -2.296 c 1.131 -0.468 2.431 0.07 2.899 1.2 c 0.815 1.969 2.598 2.67 3.995 2.67 c 1.396 0 3.179 -0.702 3.994 -2.669 c 0.469 -1.13 1.77 -1.669 2.899 -1.201 l 5.544 2.297 c 0.547 0.227 0.974 0.653 1.201 1.201 c 0.227 0.548 0.227 1.151 0 1.699 c -0.815 1.967 -0.05 3.723 0.937 4.711 c 0.987 0.986 2.745 1.75 4.711 0.937 c 1.131 -0.469 2.431 0.071 2.899 1.2 l 2.296 5.544 c 0.227 0.547 0.228 1.15 0.001 1.698 c -0.228 0.548 -0.654 0.975 -1.202 1.201 c -1.967 0.815 -2.668 2.598 -2.668 3.995 c 0 1.396 0.702 3.18 2.669 3.994 l 0 0 c 0.548 0.228 0.975 0.654 1.201 1.202 c 0.227 0.548 0.226 1.151 -0.003 1.698 l -2.295 5.543 c -0.47 1.131 -1.77 1.666 -2.899 1.2 c -1.967 -0.816 -3.723 -0.051 -4.711 0.937 c -0.988 0.987 -1.752 2.744 -0.937 4.712 c 0.227 0.548 0.227 1.15 0 1.698 c -0.227 0.548 -0.653 0.975 -1.201 1.201 l -5.543 2.296 C 31.267 69.595 30.98 69.65 30.698 69.65 z M 24.65 63.612 c 2.606 0 4.845 1.495 5.842 3.903 c 0.045 0.111 0.174 0.166 0.286 0.118 l 5.543 -2.296 c 0.069 -0.028 0.103 -0.08 0.119 -0.119 c 0.016 -0.038 0.029 -0.098 0 -0.167 c -0.998 -2.408 -0.472 -5.049 1.371 -6.892 c 1.844 -1.842 4.483 -2.365 6.892 -1.37 c 0.113 0.049 0.24 -0.007 0.286 -0.119 l 2.296 -5.543 c 0.029 -0.07 0.017 -0.13 0.001 -0.168 s -0.049 -0.09 -0.118 -0.118 c -2.408 -0.997 -3.903 -3.235 -3.904 -5.841 c 0 -2.606 1.496 -4.845 3.904 -5.843 c 0.069 -0.029 0.103 -0.08 0.118 -0.118 s 0.028 -0.098 0 -0.167 l -2.296 -5.544 c -0.045 -0.111 -0.173 -0.165 -0.287 -0.119 c -2.409 0.998 -5.049 0.472 -6.891 -1.371 c -1.843 -1.843 -2.368 -4.483 -1.371 -6.891 c 0.029 -0.069 0.016 -0.129 0 -0.167 c -0.016 -0.038 -0.049 -0.089 -0.118 -0.118 l -5.544 -2.297 c -0.111 -0.044 -0.24 0.007 -0.286 0.119 c -0.997 2.407 -3.235 3.903 -5.841 3.903 c -2.606 0 -4.845 -1.496 -5.842 -3.904 c -0.045 -0.11 -0.174 -0.163 -0.287 -0.119 l -5.543 2.296 c -0.07 0.029 -0.103 0.08 -0.119 0.119 c -0.016 0.038 -0.029 0.098 0 0.167 c 0.997 2.409 0.472 5.049 -1.371 6.892 C 9.649 33.682 7.009 34.209 4.6 33.21 c -0.11 -0.046 -0.24 0.007 -0.286 0.119 l -2.296 5.543 c -0.029 0.069 -0.016 0.129 0 0.167 c 0.016 0.038 0.049 0.089 0.118 0.118 C 4.543 40.155 6.039 42.394 6.039 45 c 0 2.606 -1.496 4.844 -3.903 5.841 c -0.111 0.046 -0.165 0.175 -0.118 0.286 l 2.296 5.543 c 0.029 0.069 0.08 0.103 0.118 0.118 c 0.039 0.016 0.098 0.029 0.168 0 c 2.408 -0.995 5.049 -0.472 6.891 1.371 c 1.843 1.843 2.368 4.483 1.371 6.892 c -0.029 0.069 -0.016 0.129 0 0.167 c 0.016 0.039 0.049 0.091 0.119 0.119 l 5.543 2.296 c 0.112 0.049 0.241 -0.006 0.286 -0.119 C 19.806 65.108 22.044 63.612 24.65 63.612 z" style="stroke: none; stroke-width: 1; stroke-dasharray: none; stroke-linecap: butt; stroke-linejoin: miter; stroke-miterlimit: 10; fill: rgb(0,0,0); fill-rule: nonzero; opacity: 1;" transform=" matrix(1 0 0 1 0 0) " stroke-linecap="round" />
	<path d="M 24.652 54.035 c -4.982 0 -9.036 -4.053 -9.036 -9.035 c 0 -4.982 4.053 -9.035 9.036 -9.035 c 4.982 0 9.035 4.053 9.035 9.035 C 33.687 49.982 29.633 54.035 24.652 54.035 z M 24.652 37.965 c -3.879 0 -7.036 3.156 -7.036 7.035 c 0 3.879 3.156 7.035 7.036 7.035 s 7.035 -3.156 7.035 -7.035 C 31.687 41.121 28.531 37.965 24.652 37.965 z" style="stroke: none; stroke-width: 1; stroke-dasharray: none; stroke-linecap: butt; stroke-linejoin: miter; stroke-miterlimit: 10; fill: rgb(0,0,0); fill-rule: nonzero; opacity: 1;" transform=" matrix(1 0 0 1 0 0) " stroke-linecap="round" />
	<path d="M 70.668 45.679 H 44.285 c -0.552 0 -1 -0.448 -1 -1 c 0 -0.552 0.448 -1 1 -1 h 26.383 c 0.553 0 1 0.448 1 1 C 71.668 45.231 71.22 45.679 70.668 45.679 z" style="stroke: none; stroke-width: 1; stroke-dasharray: none; stroke-linecap: butt; stroke-linejoin: miter; stroke-miterlimit: 10; fill: rgb(0,0,0); fill-rule: nonzero; opacity: 1;" transform=" matrix(1 0 0 1 0 0) " stroke-linecap="round" />
	<path d="M 79.356 71.577 h -8.688 c -0.553 0 -1 -0.447 -1 -1 V 19.424 c 0 -0.552 0.447 -1 1 -1 h 8.688 c 0.553 0 1 0.448 1 1 s -0.447 1 -1 1 h -7.688 v 49.153 h 7.688 c 0.553 0 1 0.447 1 1 S 79.909 71.577 79.356 71.577 z" style="stroke: none; stroke-width: 1; stroke-dasharray: none; stroke-linecap: butt; stroke-linejoin: miter; stroke-miterlimit: 10; fill: rgb(0,0,0); fill-rule: nonzero; opacity: 1;" transform=" matrix(1 0 0 1 0 0) " stroke-linecap="round" />
	<path d="M 84.178 25.245 c -3.21 0 -5.822 -2.612 -5.822 -5.822 s 2.612 -5.822 5.822 -5.822 c 3.21 0 5.821 2.612 5.821 5.822 S 87.388 25.245 84.178 25.245 z M 84.178 15.602 c -2.107 0 -3.822 1.714 -3.822 3.822 s 1.715 3.822 3.822 3.822 S 88 21.531 88 19.424 S 86.286 15.602 84.178 15.602 z" style="stroke: none; stroke-width: 1; stroke-dasharray: none; stroke-linecap: butt; stroke-linejoin: miter; stroke-miterlimit: 10; fill: rgb(0,0,0); fill-rule: nonzero; opacity: 1;" transform=" matrix(1 0 0 1 0 0) " stroke-linecap="round" />
	<path d="M 84.178 76.398 c -3.21 0 -5.822 -2.611 -5.822 -5.821 s 2.612 -5.822 5.822 -5.822 c 3.21 0 5.821 2.612 5.821 5.822 S 87.388 76.398 84.178 76.398 z M 84.178 66.755 c -2.107 0 -3.822 1.715 -3.822 3.822 s 1.715 3.821 3.822 3.821 S 88 72.684 88 70.577 S 86.286 66.755 84.178 66.755 z" style="stroke: none; stroke-width: 1; stroke-dasharray: none; stroke-linecap: butt; stroke-linejoin: miter; stroke-miterlimit: 10; fill: rgb(0,0,0); fill-rule: nonzero; opacity: 1;" transform=" matrix(1 0 0 1 0 0) " stroke-linecap="round" />
	<path d="M 84.178 50.501 c -3.21 0 -5.822 -2.612 -5.822 -5.822 c 0 -3.21 2.612 -5.822 5.822 -5.822 c 3.21 0 5.821 2.612 5.821 5.822 C 90 47.889 87.388 50.501 84.178 50.501 z M 84.178 40.857 c -2.107 0 -3.822 1.714 -3.822 3.822 c 0 2.107 1.715 3.822 3.822 3.822 S 88 46.786 88 44.679 C 88 42.571 86.286 40.857 84.178 40.857 z" style="stroke: none; stroke-width: 1; stroke-dasharray: none; stroke-linecap: butt; stroke-linejoin: miter; stroke-miterlimit: 10; fill: rgb(0,0,0); fill-rule: nonzero; opacity: 1;" transform=" matrix(1 0 0 1 0 0) " stroke-linecap="round" />
	<path d="M 79.356 45.679 h -8.688 c -0.553 0 -1 -0.448 -1 -1 c 0 -0.552 0.447 -1 1 -1 h 8.688 c 0.553 0 1 0.448 1 1 C 80.356 45.231 79.909 45.679 79.356 45.679 z" style="stroke: none; stroke-width: 1; stroke-dasharray: none; stroke-linecap: butt; stroke-linejoin: miter; stroke-miterlimit: 10; fill: rgb(0,0,0); fill-rule: nonzero; opacity: 1;" transform=" matrix(1 0 0 1 0 0) " stroke-linecap="round" />
</g>
</svg>