<svg xmlns="http://www.w3.org/2000/svg" xmlns:xlink="http://www.w3.org/1999/xlink" version="1.1" width="256" height="256" viewBox="0 0 256 256" xml:space="preserve">

<defs>
</defs>
<g style="stroke: none; stroke-width: 0; stroke-dasharray: none; stroke-linecap: butt; stroke-linejoin: miter; stroke-miterlimit: 10; fill: none; fill-rule: nonzero; opacity: 1;" transform="translate(1.4065934065934016 1.4065934065934016) scale(2.81 2.81)" >
	<path d="M 89 77.587 h -5.886 V 35.07 c 0 -3.319 -2.7 -6.019 -6.019 -6.019 H 66.833 c -0.553 0 -1 0.448 -1 1 s 0.447 1 1 1 h 10.263 c 2.216 0 4.019 1.803 4.019 4.019 v 42.517 H 50.836 H 39.164 H 8.886 V 35.07 c 0 -2.216 1.803 -4.019 4.019 -4.019 H 23.02 c 0.552 0 1 -0.448 1 -1 s -0.448 -1 -1 -1 H 12.904 c -3.319 0 -6.019 2.7 -6.019 6.019 v 42.517 H 1 c -0.552 0 -1 0.447 -1 1 v 0.909 c 0 3.322 2.703 6.025 6.026 6.025 h 33.138 h 11.672 h 33.138 c 3.323 0 6.026 -2.703 6.026 -6.025 v -0.909 C 90 78.034 89.553 77.587 89 77.587 z M 6.026 83.521 c -2.189 0 -3.977 -1.757 -4.025 -3.935 h 4.885 h 32.278 v 3.935 H 6.026 z M 41.164 83.521 v -3.935 h 7.672 v 3.935 H 41.164 z M 83.974 83.521 H 50.836 v -3.935 h 32.278 h 4.885 C 87.95 81.765 86.163 83.521 83.974 83.521 z" style="stroke: none; stroke-width: 1; stroke-dasharray: none; stroke-linecap: butt; stroke-linejoin: miter; stroke-miterlimit: 10; fill: rgb(0,0,0); fill-rule: nonzero; opacity: 1;" transform=" matrix(1 0 0 1 0 0) " stroke-linecap="round" />
	<path d="M 44.995 37.175 c -1.219 0 -2.436 -0.563 -3.592 -1.69 c -0.396 -0.386 -0.404 -1.019 -0.019 -1.414 c 0.386 -0.395 1.018 -0.404 1.414 -0.019 c 1.539 1.5 2.857 1.498 4.406 -0.002 c 0.397 -0.383 1.029 -0.373 1.414 0.023 c 0.384 0.396 0.374 1.03 -0.023 1.414 C 47.433 36.612 46.213 37.175 44.995 37.175 z" style="stroke: none; stroke-width: 1; stroke-dasharray: none; stroke-linecap: butt; stroke-linejoin: miter; stroke-miterlimit: 10; fill: rgb(0,0,0); fill-rule: nonzero; opacity: 1;" transform=" matrix(1 0 0 1 0 0) " stroke-linecap="round" />
	<path d="M 39.58 27.891 c 1.069 -0.557 2.063 -0.557 3.131 0 c 0.148 0.077 0.306 0.113 0.461 0.113 c 0.361 0 0.709 -0.196 0.888 -0.538 c 0.255 -0.49 0.065 -1.094 -0.424 -1.349 c -1.652 -0.862 -3.329 -0.862 -4.981 0 c -0.49 0.255 -0.68 0.859 -0.424 1.349 C 38.486 27.955 39.09 28.147 39.58 27.891 z" style="stroke: none; stroke-width: 1; stroke-dasharray: none; stroke-linecap: butt; stroke-linejoin: miter; stroke-miterlimit: 10; fill: rgb(0,0,0); fill-rule: nonzero; opacity: 1;" transform=" matrix(1 0 0 1 0 0) " stroke-linecap="round" />
	<path d="M 47.29 27.891 c 1.067 -0.558 2.064 -0.557 3.13 0 c 0.148 0.077 0.307 0.113 0.462 0.113 c 0.36 0 0.709 -0.195 0.888 -0.538 c 0.255 -0.49 0.065 -1.094 -0.424 -1.349 c -1.653 -0.863 -3.33 -0.862 -4.981 0 c -0.489 0.255 -0.679 0.859 -0.424 1.349 C 46.196 27.956 46.796 28.148 47.29 27.891 z" style="stroke: none; stroke-width: 1; stroke-dasharray: none; stroke-linecap: butt; stroke-linejoin: miter; stroke-miterlimit: 10; fill: rgb(0,0,0); fill-rule: nonzero; opacity: 1;" transform=" matrix(1 0 0 1 0 0) " stroke-linecap="round" />
	<path d="M 60.633 45.066 l -5.534 -0.932 c -1.659 -0.279 -2.864 -1.583 -2.864 -3.124 l -0.022 -0.997 c 0.058 -0.055 0.122 -0.102 0.179 -0.159 c 0.199 -0.197 0.384 -0.41 0.572 -0.62 c 2.377 -0.468 4.239 -2.372 4.652 -4.768 h 0.895 c 1.29 0 2.34 -1.05 2.34 -2.34 v -5.648 c 0 -1.29 -1.05 -2.34 -2.34 -2.34 h -1.194 c 0.053 -0.101 0.095 -0.207 0.111 -0.323 c 0.761 -5.43 -0.047 -9.556 -2.4 -12.262 c -2.128 -2.446 -5.451 -3.687 -9.878 -3.687 c 0 0 -0.001 0 -0.001 0 c -4.432 0 -8.258 1.55 -10.497 4.252 c -2.239 2.702 -2.936 6.388 -2.072 10.956 c 0.042 0.222 0.157 0.416 0.317 0.559 l 0.037 0.504 H 31.49 c -1.29 0 -2.34 1.05 -2.34 2.34 v 5.648 c 0 1.29 1.05 2.34 2.34 2.34 h 2.718 c 0.747 2.11 1.977 4.01 3.582 5.547 l -0.024 1.019 c 0 1.518 -1.205 2.822 -2.864 3.101 l -5.534 0.932 c -3.4 0.573 -5.867 3.327 -5.867 6.549 v 11.897 c 0 1.488 1.275 2.698 2.843 2.698 h 11.55 l 6.399 6.4 c 0.188 0.188 0.442 0.293 0.707 0.293 s 0.52 -0.105 0.707 -0.293 l 6.399 -6.4 h 11.551 c 1.567 0 2.843 -1.21 2.843 -2.698 V 51.615 C 66.5 48.394 64.032 45.64 60.633 45.066 z M 58.85 26.479 v 5.648 c 0 0.188 -0.152 0.34 -0.34 0.34 h -2.172 c 0.1 -0.512 0.182 -1.029 0.227 -1.556 l 0.331 -4.772 h 1.614 C 58.697 26.139 58.85 26.292 58.85 26.479 z M 54.385 14.1 c 1.075 1.903 1.496 4.468 1.255 7.658 C 53.765 20.12 52.615 18.201 54.385 14.1 z M 36.189 13.396 c 1.858 -2.243 5.123 -3.528 8.958 -3.528 c 0 0 0.001 0 0.001 0 c 3.464 0 6.101 0.829 7.853 2.465 c -0.141 0.284 -0.271 0.562 -0.39 0.832 c -3.384 6.244 -9.766 9.334 -18.196 8.789 C 33.871 18.351 34.467 15.475 36.189 13.396 z M 31.49 32.467 c -0.188 0 -0.34 -0.152 -0.34 -0.34 v -5.648 c 0 -0.188 0.152 -0.34 0.34 -0.34 h 1.591 l 0.356 4.787 c 0.044 0.522 0.125 1.035 0.224 1.542 H 31.49 z M 35.431 30.768 l -0.505 -6.784 c 6.986 0.318 12.67 -1.716 16.576 -5.863 c 0.151 2.502 1.645 4.18 3.547 5.733 l -0.479 6.904 c -0.118 1.404 -0.473 2.763 -1.054 4.042 c -0.307 0.674 -0.677 1.324 -1.102 1.933 c -0.144 0.207 -0.304 0.403 -0.461 0.601 c -0.044 0.001 -0.085 0.013 -0.129 0.013 h -4.114 c -0.553 0 -1 0.448 -1 1 s 0.447 1 1 1 h 2.235 c -1.023 0.807 -2.163 1.443 -3.406 1.892 c -0.994 0.358 -2.087 0.358 -3.081 0 C 38.979 39.62 35.827 35.506 35.431 30.768 z M 39.717 41.561 c 0.944 0.633 1.967 1.164 3.063 1.56 c 0.716 0.259 1.468 0.388 2.22 0.388 s 1.504 -0.129 2.22 -0.388 c 1.095 -0.396 2.114 -0.927 3.064 -1.563 c 0.153 1.4 0.893 2.646 2.022 3.493 c -4.897 4.286 -9.697 4.286 -14.61 0 C 38.829 44.202 39.569 42.955 39.717 41.561 z M 25.5 63.513 v -5.406 h 4.041 c 0.672 0 1.313 0.257 1.76 0.704 c 0.382 0.383 0.592 0.875 0.592 1.387 c -0.003 2.091 -0.003 3.303 -0.001 4.014 h -5.548 C 25.878 64.211 25.5 63.897 25.5 63.513 z M 51.864 64.211 c -0.313 -0.052 -0.636 0.05 -0.866 0.28 L 45 70.49 l -5.998 -5.999 c -0.221 -0.221 -0.526 -0.315 -0.827 -0.28 h -4.283 c -0.001 -0.714 -0.002 -1.933 0.001 -4.012 c 0.001 -1.045 -0.417 -2.04 -1.176 -2.802 c -0.82 -0.82 -1.977 -1.291 -3.176 -1.291 H 25.5 v -4.491 c 0 -2.242 1.766 -4.166 4.199 -4.576 l 5.534 -0.932 c 0.18 -0.03 0.348 -0.087 0.521 -0.133 c 3.034 2.844 6.144 4.284 9.253 4.284 s 6.214 -1.439 9.24 -4.283 c 0.173 0.046 0.34 0.103 0.519 0.133 l 5.534 0.932 c 2.434 0.41 4.199 2.334 4.199 4.576 v 4.491 h -4.083 c -1.198 0 -2.356 0.471 -3.176 1.291 c -0.76 0.761 -1.178 1.756 -1.177 2.802 c 0.002 1.858 0.003 3.191 0.001 4.012 H 51.864 z M 63.657 64.211 h -5.591 c 0.002 -0.726 0.001 -1.947 -0.001 -4.014 c -0.001 -0.512 0.21 -1.004 0.592 -1.387 c 0.447 -0.447 1.089 -0.704 1.761 -0.704 H 64.5 v 5.406 C 64.5 63.897 64.122 64.211 63.657 64.211 z" style="stroke: none; stroke-width: 1; stroke-dasharray: none; stroke-linecap: butt; stroke-linejoin: miter; stroke-miterlimit: 10; fill: rgb(0,0,0); fill-rule: nonzero; opacity: 1;" transform=" matrix(1 0 0 1 0 0) " stroke-linecap="round" />
</g>
</svg>